<?xml version="1.0" encoding="UTF-8" standalone="no" ?>
<!DOCTYPE svg PUBLIC "-//W3C//DTD SVG 1.1//EN" "http://www.w3.org/Graphics/SVG/1.1/DTD/svg11.dtd">
<svg xmlns="http://www.w3.org/2000/svg" xmlns:xlink="http://www.w3.org/1999/xlink" version="1.1" width="1080" height="1080" viewBox="0 0 1080 1080" xml:space="preserve">
<desc>Created with Fabric.js 5.2.4</desc>
<defs>
</defs>
<rect x="0" y="0" width="100%" height="100%" fill="transparent"></rect>
<g transform="matrix(1 0 0 1 540 540)" id="1a029f63-4d9e-459b-93ff-62e5c115f188"  >
<rect style="stroke: none; stroke-width: 1; stroke-dasharray: none; stroke-linecap: butt; stroke-dashoffset: 0; stroke-linejoin: miter; stroke-miterlimit: 4; fill: rgb(255,255,255); fill-rule: nonzero; opacity: 1; visibility: hidden;" vector-effect="non-scaling-stroke"  x="-540" y="-540" rx="0" ry="0" width="1080" height="1080" />
</g>
<g transform="matrix(1 0 0 1 540 540)" id="f3304063-b641-450d-b4e1-300c8f5f484c"  >
</g>
<g transform="matrix(1 0 0 1 540 540)" id="f8ea81a4-0c8e-4c9c-addc-12f91e51270f"  >
<path style="stroke: rgb(0,0,0); stroke-width: 0; stroke-dasharray: none; stroke-linecap: butt; stroke-dashoffset: 0; stroke-linejoin: miter; stroke-miterlimit: 4; fill: rgb(255,255,255); fill-rule: nonzero; opacity: 1;" vector-effect="non-scaling-stroke"  transform=" translate(-288, -256)" d="M 0 128 C 0 92.7 28.7 64 64 64 L 320 64 C 355.3 64 384 92.7 384 128 L 384 384 C 384 419.3 355.3 448 320 448 L 64 448 C 28.700000000000003 448 0 419.3 0 384 L 0 128 z M 559.1 99.8 C 569.5 105.39999999999999 576 116.19999999999999 576 128 L 576 384 C 576 395.8 569.5 406.6 559.1 412.2 C 548.7 417.79999999999995 536.1 417.2 526.2 410.59999999999997 L 430.20000000000005 346.59999999999997 L 416 337.1 L 416 320 L 416 192 L 416 174.9 L 430.2 165.4 L 526.2 101.4 C 536 94.9 548.6 94.2 559.1 99.80000000000001 z" stroke-linecap="round" />
</g>
<g transform="matrix(2.09 0 0 2.09 540 540)" id="07f4bc11-b91f-4f22-bc82-2054448e7491"  >
<path style="stroke: rgb(0,0,0); stroke-width: 0; stroke-dasharray: none; stroke-linecap: butt; stroke-dashoffset: 0; stroke-linejoin: miter; stroke-miterlimit: 4; fill: rgb(255,255,255); fill-rule: nonzero; opacity: 1;" vector-effect="non-scaling-stroke"  transform=" translate(-256, -256)" d="M 367.2 412.5 L 99.5 144.8 C 77.1 176.1 64 214.5 64 256 C 64 362 150 448 256 448 C 297.5 448 335.9 434.9 367.2 412.5 z M 412.5 367.2 C 434.9 335.9 448 297.5 448 256 C 448 150 362 64 256 64 C 214.5 64 176.1 77.1 144.8 99.5 L 412.5 367.2 z M 0 256 C 0 114.61510404331688 114.61510404331688 0 256 0 C 397.3848959566831 0 511.99999999999994 114.61510404331682 512 255.99999999999994 C 512 397.3848959566831 397.3848959566831 512 256 512 C 114.61510404331688 512 0 397.3848959566831 0 256 z" stroke-linecap="round" />
</g>
</svg>